<svg xmlns="http://www.w3.org/2000/svg" width="21" height="21" viewBox="0 0 21 21">
  <g id="Group_6" data-name="Group 6" transform="translate(-728 -443)">
    <rect id="Rectangle_4" data-name="Rectangle 4" width="21" height="21" transform="translate(728 443)" fill="none"/>
    <path id="Vector" d="M.5.833A.833.833,0,0,1,1.333,0h5a.833.833,0,0,1,.833.833v5a.833.833,0,0,1-.833.833h-5A.833.833,0,0,1,.5,5.833Zm0,8.333a.833.833,0,0,1,.833-.833h5a.833.833,0,0,1,.833.833v5A.833.833,0,0,1,6.333,15h-5A.833.833,0,0,1,.5,14.167ZM8.833.833A.833.833,0,0,1,9.667,0h5A.833.833,0,0,1,15.5.833v5a.833.833,0,0,1-.833.833h-5a.833.833,0,0,1-.833-.833Zm0,8.333a.833.833,0,0,1,.833-.833h5a.833.833,0,0,1,.833.833v5a.833.833,0,0,1-.833.833h-5a.833.833,0,0,1-.833-.833Zm1.667-7.5V5h3.333V1.667ZM10.5,10v3.333h3.333V10ZM2.167,1.667V5H5.5V1.667Zm0,8.333v3.333H5.5V10Z" transform="translate(730.5 446)" fill="#272835"/>
  </g>
</svg>
