<svg xmlns="http://www.w3.org/2000/svg" width="21" height="21" viewBox="0 0 21 21">
  <g id="Group_4" data-name="Group 4" transform="translate(-770 -443)">
    <rect id="Rectangle_6" data-name="Rectangle 6" width="21" height="21" transform="translate(770 443)" fill="none"/>
    <path id="Vector_2_" data-name="Vector (2)" d="M3.333,13.5H5v1.667H15V1.834H5V3.5H3.333V1A.833.833,0,0,1,4.166.167H15.833A.833.833,0,0,1,16.666,1V16a.833.833,0,0,1-.833.833H4.166A.833.833,0,0,1,3.333,16ZM5,7.667h5.833V9.334H5v2.5L.833,8.5,5,5.167Z" transform="translate(772.167 444.833)"/>
  </g>
</svg>
