<svg xmlns="http://www.w3.org/2000/svg" width="21" height="21" viewBox="0 0 21 21">
  <g id="Group_5" data-name="Group 5" transform="translate(-749 -443)">
    <rect id="Rectangle_5" data-name="Rectangle 5" width="21" height="21" transform="translate(749 443)" fill="none"/>
    <path id="Vector_1_" data-name="Vector (1)" d="M1.634,2.224A5.417,5.417,0,0,1,9,1.951a5.416,5.416,0,0,1,7.648,7.628l-6.47,6.493a1.667,1.667,0,0,1-2.266.085l-.091-.085L1.351,9.579A5.417,5.417,0,0,1,1.634,2.224ZM2.813,3.4a3.75,3.75,0,0,0-.122,5.176l.122.128L9,14.893l4.419-4.42L10.473,7.527l-.884.884A2.5,2.5,0,0,1,6.054,4.876L7.8,3.124a3.751,3.751,0,0,0-4.864.157ZM9.884,5.76a.833.833,0,0,1,1.178,0L14.6,9.295l.59-.589a3.75,3.75,0,0,0-5.175-5.425L9.884,3.4,7.232,6.054A.833.833,0,0,0,7.168,7.16l.065.073A.833.833,0,0,0,8.338,7.3l.073-.065Z" transform="translate(750.5 444.901)"/>
  </g>
</svg>
